<?xml version="1.0" encoding="utf-8"?>
<!-- Generator: Adobe Illustrator 28.0.0, SVG Export Plug-In . SVG Version: 6.00 Build 0)  -->
<svg version="1.1" id="Layer_1" xmlns="http://www.w3.org/2000/svg" xmlns:xlink="http://www.w3.org/1999/xlink" x="0px" y="0px"
	 viewBox="0 0 85.145 85.762" enable-background="new 0 0 85.145 85.762" xml:space="preserve">
<g>
	<polyline fill="#FFFFFF" points="0,0 85.145,0 85.145,85.762 0,85.762 	"/>
	<g>
		<path d="M39.501,11.244c1.509-0.489,3.049-1.937,4.475-2.773c0.862-0.505,1.731-0.99,2.59-1.492H16.179
			c-1.354,0-2.461,1.077-2.499,2.431l-0.366,13.221c-0.039,1.407,1.091,2.569,2.499,2.569h1.523c1.275,0,2.345-0.959,2.485-2.226
			l0.397-3.604c0.122-1.04,0.328-1.975,0.621-2.797c0.288-0.83,0.734-1.525,1.329-2.089c0.599-0.568,1.37-1.001,2.319-1.311
			c0.948-0.302,2.126-0.455,3.534-0.455h5.026c0.057,0,0.11,0.013,0.166,0.017c0.217-0.025,0.431-0.053,0.661-0.047
			c0.078,0.002,0.155,0.009,0.232,0.012c1.426-0.627,3.033-0.923,4.587-1.116C38.944,11.456,39.209,11.339,39.501,11.244z"/>
	</g>
	<path d="M29.981,37.486c1.377,1.652,3.19,3.19,5.437,4.611c2.251,1.425,5.011,2.81,8.284,4.156
		c2.631,1.101,4.932,2.133,6.908,3.094c1.971,0.966,3.608,1.975,4.908,3.029c1.3,1.058,2.273,2.203,2.915,3.444
		c0.642,1.237,0.964,2.653,0.964,4.244c0,0.188-0.017,0.369-0.025,0.553c0.169,0.183,0.331,0.372,0.48,0.576
		c1.257,1.729,2.027,4.054,3.455,5.618l0.026,0.028c1.363,1.48,3.757,1.373,4.946-0.25c0.679-0.927,1.268-1.917,1.766-2.968
		c1.193-2.526,1.79-5.301,1.79-8.33c0-2.295-0.33-4.384-0.988-6.263c-0.658-1.884-1.713-3.61-3.164-5.188
		c-1.455-1.573-3.313-3.051-5.577-4.427s-5.002-2.723-8.214-4.038c-3.182-1.285-5.776-2.487-7.777-3.601
		c-2.006-1.119-3.579-2.233-4.729-3.352c-1.145-1.114-1.934-2.255-2.362-3.418c-0.428-1.163-0.642-2.399-0.642-3.715
		c0-1.407,0.245-2.657,0.734-3.741c0.489-1.088,1.154-1.997,1.995-2.732c0.841-0.734,1.829-1.285,2.961-1.652
		s2.325-0.551,3.579-0.551c1.805,0,3.341,0.428,4.613,1.285c1.267,0.857,2.301,1.936,3.096,3.234c0.795,1.302,1.368,2.71,1.72,4.222
		c0.352,1.517,0.529,2.933,0.529,4.244c1.927,0,3.617-0.197,5.07-0.594s2.662-0.948,3.628-1.652c0.961-0.704,1.68-1.53,2.155-2.478
		c0.474-0.948,0.712-1.971,0.712-3.072c0-1.53-0.398-2.963-1.193-4.292c-0.795-1.333-2.013-2.487-3.649-3.466
		c-1.637-0.979-3.708-1.753-6.217-2.316c-2.509-0.568-5.492-0.852-8.949-0.852c-3.304,0-6.363,0.446-9.178,1.333
		s-5.247,2.155-7.297,3.807s-3.656,3.645-4.818,5.97s-1.744,4.926-1.744,7.797c0,2.299,0.297,4.405,0.896,6.337
		C27.616,34.042,28.604,35.834,29.981,37.486z"/>
	<g>
		<path d="M71.073,57.263c-2.106,3.656-8.119,3.013-9.139-1.194c-0.145-0.598-0.275-1.198-0.41-1.798
			c-0.776-0.047-1.514-0.282-2.153-0.703v7.049c0,2.581-0.276,4.755-0.827,6.523c-0.551,1.765-1.278,3.186-2.18,4.264
			c-0.902,1.078-1.935,1.851-3.102,2.313c-1.164,0.465-2.361,0.695-3.589,0.695h-1.391v2.445c0,1.121,0.909,2.03,2.03,2.03h0.752
			c1.754,0,3.476-0.133,5.17-0.394c1.69-0.265,3.294-0.684,4.812-1.26c1.514-0.576,2.918-1.335,4.21-2.273
			c1.289-0.942,2.399-2.094,3.326-3.458c0.927-1.368,1.654-2.954,2.18-4.758s0.789-3.87,0.789-6.201l0.282-5.251
			C71.605,55.582,71.254,56.949,71.073,57.263z"/>
	</g>
</g>
</svg>
